<mxfile host="app.diagrams.net" modified="2023-03-07T07:02:22.652Z" agent="5.0 (X11; Linux x86_64) AppleWebKit/537.36 (KHTML, like Gecko) Chrome/110.0.0.0 Safari/537.36" etag="HNiQwf1Eg_2zVAfUz3lQ" version="21.0.2" type="github">
  <diagram name="Page-1" id="2YBvvXClWsGukQMizWep">
    <mxGraphModel dx="1434" dy="706" grid="1" gridSize="10" guides="1" tooltips="1" connect="1" arrows="1" fold="1" page="1" pageScale="1" pageWidth="850" pageHeight="1100" math="0" shadow="0">
      <root>
        <mxCell id="0" />
        <mxCell id="1" parent="0" />
        <mxCell id="aM9ryv3xv72pqoxQDRHE-1" value="EPOS server&lt;br&gt;(Rails)" style="shape=umlLifeline;perimeter=lifelinePerimeter;whiteSpace=wrap;html=1;container=0;dropTarget=0;collapsible=0;recursiveResize=0;outlineConnect=0;portConstraint=eastwest;newEdgeStyle={&quot;edgeStyle&quot;:&quot;elbowEdgeStyle&quot;,&quot;elbow&quot;:&quot;vertical&quot;,&quot;curved&quot;:0,&quot;rounded&quot;:0};size=50;" parent="1" vertex="1">
          <mxGeometry x="170" y="40" width="100" height="960" as="geometry" />
        </mxCell>
        <mxCell id="aM9ryv3xv72pqoxQDRHE-3" value="click on &lt;br&gt;EPR button" style="html=1;verticalAlign=bottom;startArrow=oval;endArrow=block;startSize=8;edgeStyle=elbowEdgeStyle;elbow=vertical;curved=0;rounded=0;" parent="aM9ryv3xv72pqoxQDRHE-1" target="aM9ryv3xv72pqoxQDRHE-1" edge="1">
          <mxGeometry x="-0.162" relative="1" as="geometry">
            <mxPoint x="-50" y="80" as="sourcePoint" />
            <mxPoint x="10" y="80" as="targetPoint" />
            <mxPoint as="offset" />
          </mxGeometry>
        </mxCell>
        <mxCell id="aM9ryv3xv72pqoxQDRHE-2" value="" style="html=1;points=[];perimeter=orthogonalPerimeter;outlineConnect=0;targetShapes=umlLifeline;portConstraint=eastwest;newEdgeStyle={&quot;edgeStyle&quot;:&quot;elbowEdgeStyle&quot;,&quot;elbow&quot;:&quot;vertical&quot;,&quot;curved&quot;:0,&quot;rounded&quot;:0};" parent="aM9ryv3xv72pqoxQDRHE-1" vertex="1">
          <mxGeometry x="45" y="100" width="10" height="130" as="geometry" />
        </mxCell>
        <mxCell id="A8Iadc0OHZ_0-SeOrVLi-24" value="" style="endArrow=classic;html=1;rounded=0;" edge="1" parent="aM9ryv3xv72pqoxQDRHE-1" source="aM9ryv3xv72pqoxQDRHE-2" target="aM9ryv3xv72pqoxQDRHE-2">
          <mxGeometry relative="1" as="geometry">
            <mxPoint x="-80" y="210" as="sourcePoint" />
            <mxPoint x="-50" y="210" as="targetPoint" />
            <Array as="points">
              <mxPoint x="-50" y="100" />
              <mxPoint x="-50" y="130" />
              <mxPoint x="-50" y="200" />
              <mxPoint x="-50" y="230" />
            </Array>
          </mxGeometry>
        </mxCell>
        <mxCell id="A8Iadc0OHZ_0-SeOrVLi-25" value="Generate redirect link&lt;br style=&quot;border-color: var(--border-color);&quot;&gt;attached encrypted jwt string" style="edgeLabel;resizable=0;html=1;align=center;verticalAlign=middle;" connectable="0" vertex="1" parent="A8Iadc0OHZ_0-SeOrVLi-24">
          <mxGeometry relative="1" as="geometry">
            <mxPoint y="35" as="offset" />
          </mxGeometry>
        </mxCell>
        <mxCell id="A8Iadc0OHZ_0-SeOrVLi-53" value="Generate JWT based on ERP API Key" style="edgeLabel;html=1;align=center;verticalAlign=middle;resizable=0;points=[];" vertex="1" connectable="0" parent="A8Iadc0OHZ_0-SeOrVLi-24">
          <mxGeometry x="-0.2948" y="-2" relative="1" as="geometry">
            <mxPoint as="offset" />
          </mxGeometry>
        </mxCell>
        <mxCell id="A8Iadc0OHZ_0-SeOrVLi-54" value="Encrypte JWT to hash based on&lt;br&gt;ERP Secret key" style="edgeLabel;html=1;align=center;verticalAlign=middle;resizable=0;points=[];" vertex="1" connectable="0" parent="A8Iadc0OHZ_0-SeOrVLi-24">
          <mxGeometry x="-0.1073" y="1" relative="1" as="geometry">
            <mxPoint y="13" as="offset" />
          </mxGeometry>
        </mxCell>
        <mxCell id="A8Iadc0OHZ_0-SeOrVLi-55" value="" style="html=1;points=[];perimeter=orthogonalPerimeter;outlineConnect=0;targetShapes=umlLifeline;portConstraint=eastwest;newEdgeStyle={&quot;edgeStyle&quot;:&quot;elbowEdgeStyle&quot;,&quot;elbow&quot;:&quot;vertical&quot;,&quot;curved&quot;:0,&quot;rounded&quot;:0};" vertex="1" parent="aM9ryv3xv72pqoxQDRHE-1">
          <mxGeometry x="45" y="740" width="10" height="60" as="geometry" />
        </mxCell>
        <mxCell id="A8Iadc0OHZ_0-SeOrVLi-56" value="" style="endArrow=classic;html=1;rounded=0;" edge="1" parent="aM9ryv3xv72pqoxQDRHE-1" source="A8Iadc0OHZ_0-SeOrVLi-55" target="A8Iadc0OHZ_0-SeOrVLi-55">
          <mxGeometry relative="1" as="geometry">
            <mxPoint x="40" y="740" as="sourcePoint" />
            <mxPoint x="-60" y="850" as="targetPoint" />
            <Array as="points">
              <mxPoint x="-60" y="740" />
            </Array>
          </mxGeometry>
        </mxCell>
        <mxCell id="A8Iadc0OHZ_0-SeOrVLi-57" value="Validate JWT token by API Key" style="edgeLabel;resizable=0;html=1;align=center;verticalAlign=middle;" connectable="0" vertex="1" parent="A8Iadc0OHZ_0-SeOrVLi-56">
          <mxGeometry relative="1" as="geometry" />
        </mxCell>
        <mxCell id="aM9ryv3xv72pqoxQDRHE-5" value="ERP cloud API&lt;br&gt;(Nextjs / api)" style="shape=umlLifeline;perimeter=lifelinePerimeter;whiteSpace=wrap;html=1;container=0;dropTarget=0;collapsible=0;recursiveResize=0;outlineConnect=0;portConstraint=eastwest;newEdgeStyle={&quot;edgeStyle&quot;:&quot;elbowEdgeStyle&quot;,&quot;elbow&quot;:&quot;vertical&quot;,&quot;curved&quot;:0,&quot;rounded&quot;:0};size=50;" parent="1" vertex="1">
          <mxGeometry x="400" y="40" width="100" height="960" as="geometry" />
        </mxCell>
        <mxCell id="aM9ryv3xv72pqoxQDRHE-6" value="" style="html=1;points=[];perimeter=orthogonalPerimeter;outlineConnect=0;targetShapes=umlLifeline;portConstraint=eastwest;newEdgeStyle={&quot;edgeStyle&quot;:&quot;elbowEdgeStyle&quot;,&quot;elbow&quot;:&quot;vertical&quot;,&quot;curved&quot;:0,&quot;rounded&quot;:0};" parent="aM9ryv3xv72pqoxQDRHE-5" vertex="1">
          <mxGeometry x="45" y="270" width="10" height="170" as="geometry" />
        </mxCell>
        <mxCell id="A8Iadc0OHZ_0-SeOrVLi-28" value="" style="endArrow=classic;html=1;rounded=0;" edge="1" parent="aM9ryv3xv72pqoxQDRHE-5" source="aM9ryv3xv72pqoxQDRHE-6" target="aM9ryv3xv72pqoxQDRHE-6">
          <mxGeometry relative="1" as="geometry">
            <mxPoint x="40" y="250" as="sourcePoint" />
            <mxPoint x="-60" y="450" as="targetPoint" />
            <Array as="points">
              <mxPoint x="-60" y="270" />
              <mxPoint x="-60" y="440" />
            </Array>
          </mxGeometry>
        </mxCell>
        <mxCell id="A8Iadc0OHZ_0-SeOrVLi-29" value="- Attached JWT token to cookie" style="edgeLabel;resizable=0;html=1;align=center;verticalAlign=middle;" connectable="0" vertex="1" parent="A8Iadc0OHZ_0-SeOrVLi-28">
          <mxGeometry relative="1" as="geometry">
            <mxPoint y="15" as="offset" />
          </mxGeometry>
        </mxCell>
        <mxCell id="A8Iadc0OHZ_0-SeOrVLi-30" value="- Decrypted the encrypted text &lt;br&gt;by ERP Secret Key" style="edgeLabel;html=1;align=center;verticalAlign=middle;resizable=0;points=[];" vertex="1" connectable="0" parent="A8Iadc0OHZ_0-SeOrVLi-28">
          <mxGeometry x="-0.3953" relative="1" as="geometry">
            <mxPoint y="10" as="offset" />
          </mxGeometry>
        </mxCell>
        <mxCell id="A8Iadc0OHZ_0-SeOrVLi-31" value="- Decode JWT token to get basic info" style="edgeLabel;html=1;align=center;verticalAlign=middle;resizable=0;points=[];" vertex="1" connectable="0" parent="A8Iadc0OHZ_0-SeOrVLi-28">
          <mxGeometry x="-0.2356" relative="1" as="geometry">
            <mxPoint y="19" as="offset" />
          </mxGeometry>
        </mxCell>
        <mxCell id="A8Iadc0OHZ_0-SeOrVLi-32" value="- Redirect to a protected path" style="edgeLabel;html=1;align=center;verticalAlign=middle;resizable=0;points=[];" vertex="1" connectable="0" parent="A8Iadc0OHZ_0-SeOrVLi-28">
          <mxGeometry x="0.2218" relative="1" as="geometry">
            <mxPoint y="13" as="offset" />
          </mxGeometry>
        </mxCell>
        <mxCell id="A8Iadc0OHZ_0-SeOrVLi-40" value="" style="html=1;points=[];perimeter=orthogonalPerimeter;outlineConnect=0;targetShapes=umlLifeline;portConstraint=eastwest;newEdgeStyle={&quot;edgeStyle&quot;:&quot;elbowEdgeStyle&quot;,&quot;elbow&quot;:&quot;vertical&quot;,&quot;curved&quot;:0,&quot;rounded&quot;:0};" vertex="1" parent="aM9ryv3xv72pqoxQDRHE-5">
          <mxGeometry x="45" y="550" width="10" height="170" as="geometry" />
        </mxCell>
        <mxCell id="A8Iadc0OHZ_0-SeOrVLi-41" value="" style="endArrow=classic;html=1;rounded=0;" edge="1" parent="aM9ryv3xv72pqoxQDRHE-5" source="A8Iadc0OHZ_0-SeOrVLi-40" target="aM9ryv3xv72pqoxQDRHE-5">
          <mxGeometry relative="1" as="geometry">
            <mxPoint x="60" y="540" as="sourcePoint" />
            <mxPoint x="160" y="710" as="targetPoint" />
            <Array as="points">
              <mxPoint x="160" y="550" />
              <mxPoint x="160" y="720" />
            </Array>
          </mxGeometry>
        </mxCell>
        <mxCell id="A8Iadc0OHZ_0-SeOrVLi-42" value="Dercrypt cookies and get JWT token" style="edgeLabel;resizable=0;html=1;align=center;verticalAlign=middle;" connectable="0" vertex="1" parent="A8Iadc0OHZ_0-SeOrVLi-41">
          <mxGeometry relative="1" as="geometry">
            <mxPoint y="-27" as="offset" />
          </mxGeometry>
        </mxCell>
        <mxCell id="A8Iadc0OHZ_0-SeOrVLi-45" value="Attached JWT token to request header" style="edgeLabel;html=1;align=center;verticalAlign=middle;resizable=0;points=[];" vertex="1" connectable="0" parent="A8Iadc0OHZ_0-SeOrVLi-41">
          <mxGeometry x="-0.1645" y="-1" relative="1" as="geometry">
            <mxPoint x="1" y="44" as="offset" />
          </mxGeometry>
        </mxCell>
        <mxCell id="A8Iadc0OHZ_0-SeOrVLi-46" value="Forward params / body to EPOS server" style="edgeLabel;html=1;align=center;verticalAlign=middle;resizable=0;points=[];" vertex="1" connectable="0" parent="A8Iadc0OHZ_0-SeOrVLi-41">
          <mxGeometry x="0.0313" y="-1" relative="1" as="geometry">
            <mxPoint y="36" as="offset" />
          </mxGeometry>
        </mxCell>
        <mxCell id="A8Iadc0OHZ_0-SeOrVLi-47" value="Validate cookie in nextjs middleware" style="edgeLabel;html=1;align=center;verticalAlign=middle;resizable=0;points=[];" vertex="1" connectable="0" parent="A8Iadc0OHZ_0-SeOrVLi-41">
          <mxGeometry x="0.2332" y="1" relative="1" as="geometry">
            <mxPoint y="-102" as="offset" />
          </mxGeometry>
        </mxCell>
        <mxCell id="A8Iadc0OHZ_0-SeOrVLi-1" value="ERP Client UI" style="shape=umlLifeline;perimeter=lifelinePerimeter;whiteSpace=wrap;html=1;container=0;dropTarget=0;collapsible=0;recursiveResize=0;outlineConnect=0;portConstraint=eastwest;newEdgeStyle={&quot;edgeStyle&quot;:&quot;elbowEdgeStyle&quot;,&quot;elbow&quot;:&quot;vertical&quot;,&quot;curved&quot;:0,&quot;rounded&quot;:0};size=50;" vertex="1" parent="1">
          <mxGeometry x="610" y="40" width="100" height="960" as="geometry" />
        </mxCell>
        <mxCell id="A8Iadc0OHZ_0-SeOrVLi-26" value="" style="endArrow=classic;html=1;rounded=0;" edge="1" parent="1" target="aM9ryv3xv72pqoxQDRHE-5">
          <mxGeometry relative="1" as="geometry">
            <mxPoint x="220" y="280" as="sourcePoint" />
            <mxPoint x="320" y="280" as="targetPoint" />
          </mxGeometry>
        </mxCell>
        <mxCell id="A8Iadc0OHZ_0-SeOrVLi-27" value="redirect to the link" style="edgeLabel;resizable=0;html=1;align=center;verticalAlign=middle;" connectable="0" vertex="1" parent="A8Iadc0OHZ_0-SeOrVLi-26">
          <mxGeometry relative="1" as="geometry" />
        </mxCell>
        <mxCell id="A8Iadc0OHZ_0-SeOrVLi-33" value="" style="endArrow=classic;html=1;rounded=0;" edge="1" parent="1" source="aM9ryv3xv72pqoxQDRHE-5" target="A8Iadc0OHZ_0-SeOrVLi-1">
          <mxGeometry relative="1" as="geometry">
            <mxPoint x="455" y="520" as="sourcePoint" />
            <mxPoint x="555" y="520" as="targetPoint" />
            <Array as="points">
              <mxPoint x="610" y="510" />
            </Array>
          </mxGeometry>
        </mxCell>
        <mxCell id="A8Iadc0OHZ_0-SeOrVLi-34" value="redirect to Client" style="edgeLabel;resizable=0;html=1;align=center;verticalAlign=middle;" connectable="0" vertex="1" parent="A8Iadc0OHZ_0-SeOrVLi-33">
          <mxGeometry relative="1" as="geometry" />
        </mxCell>
        <mxCell id="A8Iadc0OHZ_0-SeOrVLi-38" value="" style="endArrow=classic;html=1;rounded=0;" edge="1" parent="1" source="A8Iadc0OHZ_0-SeOrVLi-1" target="aM9ryv3xv72pqoxQDRHE-5">
          <mxGeometry relative="1" as="geometry">
            <mxPoint x="600" y="600" as="sourcePoint" />
            <mxPoint x="500" y="600" as="targetPoint" />
            <Array as="points">
              <mxPoint x="580" y="560" />
            </Array>
          </mxGeometry>
        </mxCell>
        <mxCell id="A8Iadc0OHZ_0-SeOrVLi-39" value="send requests to cloud api" style="edgeLabel;resizable=0;html=1;align=center;verticalAlign=middle;" connectable="0" vertex="1" parent="A8Iadc0OHZ_0-SeOrVLi-38">
          <mxGeometry relative="1" as="geometry" />
        </mxCell>
        <mxCell id="A8Iadc0OHZ_0-SeOrVLi-48" value="" style="endArrow=classic;html=1;rounded=0;" edge="1" parent="1" target="aM9ryv3xv72pqoxQDRHE-1">
          <mxGeometry relative="1" as="geometry">
            <mxPoint x="450" y="770" as="sourcePoint" />
            <mxPoint x="350" y="770" as="targetPoint" />
          </mxGeometry>
        </mxCell>
        <mxCell id="A8Iadc0OHZ_0-SeOrVLi-49" value="Request to EPOS server" style="edgeLabel;resizable=0;html=1;align=center;verticalAlign=middle;" connectable="0" vertex="1" parent="A8Iadc0OHZ_0-SeOrVLi-48">
          <mxGeometry relative="1" as="geometry" />
        </mxCell>
        <mxCell id="A8Iadc0OHZ_0-SeOrVLi-51" value="" style="endArrow=classic;html=1;rounded=0;" edge="1" parent="1" source="aM9ryv3xv72pqoxQDRHE-1" target="aM9ryv3xv72pqoxQDRHE-5">
          <mxGeometry relative="1" as="geometry">
            <mxPoint x="240" y="820" as="sourcePoint" />
            <mxPoint x="340" y="820" as="targetPoint" />
            <Array as="points">
              <mxPoint x="340" y="850" />
            </Array>
          </mxGeometry>
        </mxCell>
        <mxCell id="A8Iadc0OHZ_0-SeOrVLi-52" value="Response from EPOS Server" style="edgeLabel;resizable=0;html=1;align=center;verticalAlign=middle;" connectable="0" vertex="1" parent="A8Iadc0OHZ_0-SeOrVLi-51">
          <mxGeometry relative="1" as="geometry" />
        </mxCell>
        <mxCell id="A8Iadc0OHZ_0-SeOrVLi-58" value="" style="endArrow=classic;html=1;rounded=0;" edge="1" parent="1" source="aM9ryv3xv72pqoxQDRHE-5" target="A8Iadc0OHZ_0-SeOrVLi-1">
          <mxGeometry relative="1" as="geometry">
            <mxPoint x="490" y="910" as="sourcePoint" />
            <mxPoint x="590" y="910" as="targetPoint" />
            <Array as="points">
              <mxPoint x="580" y="880" />
            </Array>
          </mxGeometry>
        </mxCell>
        <mxCell id="A8Iadc0OHZ_0-SeOrVLi-59" value="Reponse from ERP Cloud API" style="edgeLabel;resizable=0;html=1;align=center;verticalAlign=middle;" connectable="0" vertex="1" parent="A8Iadc0OHZ_0-SeOrVLi-58">
          <mxGeometry relative="1" as="geometry" />
        </mxCell>
      </root>
    </mxGraphModel>
  </diagram>
</mxfile>
